<svg width="21" height="21" viewBox="0 0 21 21" fill="none" xmlns="http://www.w3.org/2000/svg">
<path d="M19.25 0H1.75C1.28587 0 0.840752 0.184374 0.512563 0.512563C0.184374 0.840752 0 1.28587 0 1.75V19.25C0 19.7141 0.184374 20.1592 0.512563 20.4874C0.840752 20.8156 1.28587 21 1.75 21H19.25C19.7141 21 20.1592 20.8156 20.4874 20.4874C20.8156 20.1592 21 19.7141 21 19.25V1.75C21 1.28587 20.8156 0.840752 20.4874 0.512563C20.1592 0.184374 19.7141 0 19.25 0ZM5.25 19.25H1.75V1.75H5.25V19.25ZM15.75 13.125H8.75C8.51794 13.125 8.29538 13.0328 8.13128 12.8687C7.96719 12.7046 7.875 12.4821 7.875 12.25C7.875 12.0179 7.96719 11.7954 8.13128 11.6313C8.29538 11.4672 8.51794 11.375 8.75 11.375H15.75C15.9821 11.375 16.2046 11.4672 16.3687 11.6313C16.5328 11.7954 16.625 12.0179 16.625 12.25C16.625 12.4821 16.5328 12.7046 16.3687 12.8687C16.2046 13.0328 15.9821 13.125 15.75 13.125ZM15.75 9.625H8.75C8.51794 9.625 8.29538 9.53281 8.13128 9.36872C7.96719 9.20462 7.875 8.98207 7.875 8.75C7.875 8.51794 7.96719 8.29538 8.13128 8.13128C8.29538 7.96719 8.51794 7.875 8.75 7.875H15.75C15.9821 7.875 16.2046 7.96719 16.3687 8.13128C16.5328 8.29538 16.625 8.51794 16.625 8.75C16.625 8.98207 16.5328 9.20462 16.3687 9.36872C16.2046 9.53281 15.9821 9.625 15.75 9.625Z" fill="white"/>
</svg>
