<svg width="21" height="21" viewBox="0 0 21 21" fill="none" xmlns="http://www.w3.org/2000/svg">
<path d="M10.5 0C8.4233 0 6.39323 0.615814 4.66652 1.76957C2.9398 2.92332 1.59399 4.5632 0.799269 6.48182C0.00454949 8.40045 -0.203385 10.5116 0.201759 12.5484C0.606904 14.5852 1.60693 16.4562 3.07538 17.9246C4.54383 19.3931 6.41475 20.3931 8.45155 20.7982C10.4884 21.2034 12.5996 20.9954 14.5182 20.2007C16.4368 19.406 18.0767 18.0602 19.2304 16.3335C20.3842 14.6068 21 12.5767 21 10.5C20.9971 7.71613 19.8899 5.04712 17.9214 3.07862C15.9529 1.11013 13.2839 0.00293982 10.5 0ZM10.5 16.9615C10.2604 16.9615 10.0261 16.8905 9.82691 16.7574C9.62767 16.6242 9.47239 16.435 9.38069 16.2136C9.28899 15.9923 9.265 15.7487 9.31174 15.5136C9.35849 15.2786 9.47388 15.0627 9.64332 14.8933C9.81275 14.7239 10.0286 14.6085 10.2636 14.5617C10.4987 14.515 10.7423 14.539 10.9636 14.6307C11.185 14.7224 11.3742 14.8777 11.5074 15.0769C11.6405 15.2761 11.7115 15.5104 11.7115 15.75C11.7115 16.0713 11.5839 16.3795 11.3567 16.6067C11.1295 16.8339 10.8213 16.9615 10.5 16.9615ZM11.3077 12.0427V12.1154C11.3077 12.3296 11.2226 12.535 11.0711 12.6865C10.9197 12.838 10.7142 12.9231 10.5 12.9231C10.2858 12.9231 10.0803 12.838 9.92888 12.6865C9.77741 12.535 9.69231 12.3296 9.69231 12.1154V11.3077C9.69231 11.0935 9.77741 10.888 9.92888 10.7366C10.0803 10.5851 10.2858 10.5 10.5 10.5C11.8357 10.5 12.9231 9.59134 12.9231 8.48077C12.9231 7.37019 11.8357 6.46154 10.5 6.46154C9.16428 6.46154 8.07693 7.37019 8.07693 8.48077V8.88461C8.07693 9.09883 7.99183 9.30427 7.84036 9.45574C7.68889 9.60721 7.48345 9.69231 7.26923 9.69231C7.05502 9.69231 6.84958 9.60721 6.69811 9.45574C6.54664 9.30427 6.46154 9.09883 6.46154 8.88461V8.48077C6.46154 6.47668 8.27279 4.84615 10.5 4.84615C12.7272 4.84615 14.5385 6.47668 14.5385 8.48077C14.5385 10.2355 13.1492 11.7045 11.3077 12.0427Z" fill="white"/>
</svg>
