<svg width="40" height="44" viewBox="0 0 40 44" fill="none" xmlns="http://www.w3.org/2000/svg">
<path d="M40 1.69231V35.5385C40 35.9873 39.8084 36.4177 39.4675 36.7351C39.1265 37.0525 38.664 37.2308 38.1818 37.2308H7.27273C6.3083 37.2308 5.38338 37.5874 4.70143 38.2221C4.01948 38.8568 3.63636 39.7177 3.63636 40.6154H34.5455C35.0277 40.6154 35.4901 40.7937 35.8311 41.111C36.1721 41.4284 36.3636 41.8589 36.3636 42.3077C36.3636 42.7565 36.1721 43.187 35.8311 43.5043C35.4901 43.8217 35.0277 44 34.5455 44H1.81818C1.33597 44 0.873509 43.8217 0.532533 43.5043C0.191558 43.187 0 42.7565 0 42.3077V6.76923C0 4.97392 0.766231 3.25214 2.13013 1.98266C3.49403 0.713184 5.34388 0 7.27273 0H38.1818C38.664 0 39.1265 0.178296 39.4675 0.495665C39.8084 0.813035 40 1.24348 40 1.69231Z" fill="#274F83"/>
</svg>
