<svg width="17" height="17" viewBox="0 0 17 17" fill="none" xmlns="http://www.w3.org/2000/svg">
<path d="M8.5 0C6.81886 0 5.17547 0.498516 3.77766 1.43251C2.37984 2.3665 1.29037 3.69402 0.647028 5.24719C0.00368293 6.80036 -0.164645 8.50943 0.163329 10.1583C0.491303 11.8071 1.30085 13.3217 2.4896 14.5104C3.67834 15.6992 5.1929 16.5087 6.84173 16.8367C8.49057 17.1646 10.1996 16.9963 11.7528 16.353C13.306 15.7096 14.6335 14.6202 15.5675 13.2223C16.5015 11.8245 17 10.1811 17 8.5C16.9975 6.24643 16.1012 4.08587 14.5076 2.49235C12.9141 0.898836 10.7536 0.00249981 8.5 0ZM8.5 15.1111C7.19245 15.1111 5.91426 14.7234 4.82707 13.9969C3.73987 13.2705 2.89251 12.238 2.39213 11.03C1.89175 9.82194 1.76083 8.49266 2.01592 7.21023C2.27101 5.9278 2.90066 4.74982 3.82524 3.82524C4.74982 2.90066 5.92781 2.27101 7.21024 2.01592C8.49267 1.76083 9.82194 1.89175 11.03 2.39213C12.238 2.89251 13.2705 3.73987 13.9969 4.82706C14.7234 5.91425 15.1111 7.19244 15.1111 8.5C15.1092 10.2528 14.4121 11.9333 13.1727 13.1727C11.9333 14.4121 10.2528 15.1092 8.5 15.1111ZM12.5926 8.5C12.5926 8.75048 12.4931 8.9907 12.316 9.16782C12.1389 9.34494 11.8986 9.44444 11.6481 9.44444H9.44445V11.6481C9.44445 11.8986 9.34494 12.1389 9.16782 12.316C8.99071 12.4931 8.75048 12.5926 8.5 12.5926C8.24952 12.5926 8.0093 12.4931 7.83218 12.316C7.65506 12.1389 7.55556 11.8986 7.55556 11.6481V9.44444H5.35185C5.10137 9.44444 4.86115 9.34494 4.68403 9.16782C4.50691 8.9907 4.40741 8.75048 4.40741 8.5C4.40741 8.24952 4.50691 8.00929 4.68403 7.83218C4.86115 7.65506 5.10137 7.55555 5.35185 7.55555H7.55556V5.35185C7.55556 5.10137 7.65506 4.86115 7.83218 4.68403C8.0093 4.50691 8.24952 4.40741 8.5 4.40741C8.75048 4.40741 8.99071 4.50691 9.16782 4.68403C9.34494 4.86115 9.44445 5.10137 9.44445 5.35185V7.55555H11.6481C11.8986 7.55555 12.1389 7.65506 12.316 7.83218C12.4931 8.00929 12.5926 8.24952 12.5926 8.5Z" fill="white"/>
</svg>
