<svg width="19" height="15" viewBox="0 0 19 15" fill="none" xmlns="http://www.w3.org/2000/svg">
<path d="M0.272589 0.91439C0.455372 0.63382 0.719267 0.401284 1.03721 0.240626C1.35516 0.0799692 1.71571 -0.00302784 2.0819 0.000147939L16.9177 0.000147939C17.2839 -0.00302784 17.6445 0.0799692 17.9624 0.240626C18.2804 0.401284 18.5443 0.63382 18.727 0.91439C18.9054 1.1843 18.9994 1.49128 18.9994 1.80388C18.9994 2.11648 18.9054 2.42346 18.727 2.69337L11.3108 14.0835C11.1255 14.3626 10.8608 14.594 10.5432 14.7547C10.2255 14.9155 9.86584 15.0001 9.49981 15.0001C9.13379 15.0001 8.77413 14.9155 8.45647 14.7547C8.1388 14.594 7.87417 14.3626 7.68881 14.0835L0.270891 2.69337C0.0927927 2.42333 -0.00090655 2.11628 -0.000608444 1.80368C-0.000310338 1.49108 0.0939755 1.18417 0.272589 0.91439Z" fill="#BB5B42"/>
</svg>
