<svg width="21" height="21" viewBox="0 0 21 21" fill="none" xmlns="http://www.w3.org/2000/svg">
<g clip-path="url(#clip0_49_23)">
<path d="M20.9889 10.6964C20.9889 9.83604 20.9175 9.20821 20.7629 8.55713H10.7092V12.4404H16.6105C16.4915 13.4054 15.849 14.8587 14.4213 15.8353L14.4013 15.9653L17.5801 18.3717L17.8003 18.3932C19.8229 16.5678 20.9889 13.8821 20.9889 10.6964Z" fill="white"/>
<path d="M10.7092 20.9278C13.6003 20.9278 16.0274 19.9977 17.8003 18.3932L14.4213 15.8353C13.517 16.4516 12.3034 16.8817 10.7092 16.8817C7.87748 16.8817 5.47413 15.0564 4.61741 12.5334L4.49183 12.5439L1.18648 15.0436L1.14325 15.161C2.90411 18.5792 6.52107 20.9278 10.7092 20.9278Z" fill="white"/>
<path d="M4.61745 12.5334C4.3914 11.8824 4.26057 11.1847 4.26057 10.4639C4.26057 9.74301 4.3914 9.04544 4.60556 8.39436L4.59957 8.2557L1.2528 5.71582L1.1433 5.76672C0.417559 7.18518 0.00112915 8.77805 0.00112915 10.4639C0.00112915 12.1498 0.417559 13.7425 1.1433 15.161L4.61745 12.5334Z" fill="white"/>
<path d="M10.7092 4.04603C12.7199 4.04603 14.0762 4.89476 14.8496 5.60403L17.8716 2.72062C16.0156 1.03477 13.6003 0 10.7092 0C6.52107 0 2.90411 2.34855 1.14325 5.76674L4.60551 8.39439C5.47414 5.87142 7.87748 4.04603 10.7092 4.04603Z" fill="white"/>
</g>
<defs>
<clipPath id="clip0_49_23">
<rect width="21" height="21" fill="white"/>
</clipPath>
</defs>
</svg>
