<svg width="94" height="49" viewBox="0 0 94 49" fill="none" xmlns="http://www.w3.org/2000/svg">
<path d="M40 3.69231V37.5385C40 37.9873 39.8084 38.4177 39.4675 38.7351C39.1265 39.0525 38.664 39.2308 38.1818 39.2308H7.27273C6.3083 39.2308 5.38338 39.5874 4.70143 40.2221C4.01948 40.8568 3.63636 41.7177 3.63636 42.6154H34.5455C35.0277 42.6154 35.4901 42.7937 35.8311 43.111C36.1721 43.4284 36.3636 43.8589 36.3636 44.3077C36.3636 44.7565 36.1721 45.187 35.8311 45.5043C35.4901 45.8217 35.0277 46 34.5455 46H1.81818C1.33597 46 0.873509 45.8217 0.532533 45.5043C0.191558 45.187 0 44.7565 0 44.3077V8.76923C0 6.97392 0.766231 5.25214 2.13013 3.98266C3.49403 2.71318 5.34388 2 7.27273 2H38.1818C38.664 2 39.1265 2.1783 39.4675 2.49567C39.8084 2.81303 40 3.24348 40 3.69231Z" fill="#274F83"/>
<path d="M46.6448 8.666C48.3168 8.666 49.7614 8.98133 50.9788 9.612C52.2108 10.228 53.1494 11.1153 53.7948 12.274C54.4548 13.4327 54.7848 14.7967 54.7848 16.366C54.7848 17.9353 54.4548 19.2993 53.7948 20.458C53.1494 21.602 52.2108 22.482 50.9788 23.098C49.7614 23.6993 48.3168 24 46.6448 24H41.8708V8.666H46.6448ZM46.6448 22.35C48.6248 22.35 50.1354 21.8293 51.1768 20.788C52.2181 19.732 52.7388 18.258 52.7388 16.366C52.7388 14.4593 52.2108 12.9707 51.1548 11.9C50.1134 10.8293 48.6101 10.294 46.6448 10.294H43.8728V22.35H46.6448ZM56.6774 17.928C56.6774 16.696 56.9268 15.618 57.4254 14.694C57.9241 13.7553 58.6061 13.0293 59.4714 12.516C60.3514 12.0027 61.3268 11.746 62.3974 11.746C63.4534 11.746 64.3701 11.9733 65.1474 12.428C65.9248 12.8827 66.5041 13.4547 66.8854 14.144V11.944H68.9094V24H66.8854V21.756C66.4894 22.46 65.8954 23.0467 65.1034 23.516C64.3261 23.9707 63.4168 24.198 62.3754 24.198C61.3048 24.198 60.3368 23.934 59.4714 23.406C58.6061 22.878 57.9241 22.1373 57.4254 21.184C56.9268 20.2307 56.6774 19.1453 56.6774 17.928ZM66.8854 17.95C66.8854 17.0407 66.7021 16.2487 66.3354 15.574C65.9688 14.8993 65.4701 14.386 64.8394 14.034C64.2234 13.6673 63.5414 13.484 62.7934 13.484C62.0454 13.484 61.3634 13.66 60.7474 14.012C60.1314 14.364 59.6401 14.8773 59.2734 15.552C58.9068 16.2267 58.7234 17.0187 58.7234 17.928C58.7234 18.852 58.9068 19.6587 59.2734 20.348C59.6401 21.0227 60.1314 21.5433 60.7474 21.91C61.3634 22.262 62.0454 22.438 62.7934 22.438C63.5414 22.438 64.2234 22.262 64.8394 21.91C65.4701 21.5433 65.9688 21.0227 66.3354 20.348C66.7021 19.6587 66.8854 18.8593 66.8854 17.95ZM73.3266 9.986C72.9453 9.986 72.6226 9.854 72.3586 9.59C72.0946 9.326 71.9626 9.00333 71.9626 8.622C71.9626 8.24067 72.0946 7.918 72.3586 7.654C72.6226 7.39 72.9453 7.258 73.3266 7.258C73.6933 7.258 74.0013 7.39 74.2506 7.654C74.5146 7.918 74.6466 8.24067 74.6466 8.622C74.6466 9.00333 74.5146 9.326 74.2506 9.59C74.0013 9.854 73.6933 9.986 73.3266 9.986ZM74.2946 11.944V24H72.2926V11.944H74.2946ZM79.7087 7.72V24H77.7067V7.72H79.7087ZM93.5048 11.944L86.2448 29.676H84.1768L86.5528 23.868L81.6908 11.944H83.9128L87.6968 21.712L91.4368 11.944H93.5048Z" fill="black"/>
<path d="M53.3432 29.11C52.9179 28.2153 52.3019 27.526 51.4952 27.042C50.6885 26.5433 49.7499 26.294 48.6792 26.294C47.6085 26.294 46.6405 26.5433 45.7752 27.042C44.9245 27.526 44.2499 28.23 43.7512 29.154C43.2672 30.0633 43.0252 31.1193 43.0252 32.322C43.0252 33.5247 43.2672 34.5807 43.7512 35.49C44.2499 36.3993 44.9245 37.1033 45.7752 37.602C46.6405 38.086 47.6085 38.328 48.6792 38.328C50.1752 38.328 51.4072 37.8807 52.3752 36.986C53.3432 36.0913 53.9079 34.8813 54.0692 33.356H47.9532V31.728H56.2032V33.268C56.0859 34.5293 55.6899 35.688 55.0152 36.744C54.3405 37.7853 53.4532 38.614 52.3532 39.23C51.2532 39.8313 50.0285 40.132 48.6792 40.132C47.2565 40.132 45.9585 39.802 44.7852 39.142C43.6119 38.4673 42.6805 37.536 41.9912 36.348C41.3165 35.16 40.9792 33.818 40.9792 32.322C40.9792 30.826 41.3165 29.484 41.9912 28.296C42.6805 27.0933 43.6119 26.162 44.7852 25.502C45.9585 24.8273 47.2565 24.49 48.6792 24.49C50.3072 24.49 51.7445 24.8933 52.9912 25.7C54.2525 26.5067 55.1692 27.6433 55.7412 29.11H53.3432ZM60.8523 23.72V40H58.8503V23.72H60.8523ZM74.6483 27.944L67.3883 45.676H65.3203L67.6963 39.868L62.8343 27.944H65.0563L68.8403 37.712L72.5803 27.944H74.6483Z" fill="#BB5B42"/>
</svg>
