<svg width="160" height="81" viewBox="0 0 160 81" fill="none" xmlns="http://www.w3.org/2000/svg">
<path d="M67 3.11538V65.4231C67 66.2493 66.6791 67.0417 66.108 67.626C65.5369 68.2102 64.7622 68.5385 63.9545 68.5385H12.1818C10.5664 68.5385 9.01716 69.1949 7.87489 70.3634C6.73263 71.5319 6.09091 73.1167 6.09091 74.7692H57.8636C58.6713 74.7692 59.446 75.0975 60.0171 75.6817C60.5882 76.2659 60.9091 77.0584 60.9091 77.8846C60.9091 78.7109 60.5882 79.5033 60.0171 80.0875C59.446 80.6718 58.6713 81 57.8636 81H3.04545C2.23775 81 1.46313 80.6718 0.891994 80.0875C0.32086 79.5033 0 78.7109 0 77.8846V12.4615C0 9.15653 1.28344 5.98689 3.56797 3.6499C5.85251 1.31291 8.951 0 12.1818 0H63.9545C64.7622 0 65.5369 0.328227 66.108 0.912475C66.6791 1.49672 67 2.28913 67 3.11538Z" fill="#274F83"/>
<path d="M78.3409 14.514C81.2289 14.514 83.7243 15.0587 85.8269 16.148C87.9549 17.212 89.5763 18.7447 90.6909 20.746C91.8309 22.7473 92.4009 25.1033 92.4009 27.814C92.4009 30.5247 91.8309 32.8807 90.6909 34.882C89.5763 36.858 87.9549 38.378 85.8269 39.442C83.7243 40.4807 81.2289 41 78.3409 41H70.0949V14.514H78.3409ZM78.3409 38.15C81.7609 38.15 84.3703 37.2507 86.1689 35.452C87.9676 33.628 88.8669 31.082 88.8669 27.814C88.8669 24.5207 87.9549 21.9493 86.1309 20.1C84.3323 18.2507 81.7356 17.326 78.3409 17.326H73.5529V38.15H78.3409ZM95.6701 30.512C95.6701 28.384 96.1008 26.522 96.9621 24.926C97.8235 23.3047 99.0015 22.0507 100.496 21.164C102.016 20.2773 103.701 19.834 105.55 19.834C107.374 19.834 108.957 20.2267 110.3 21.012C111.643 21.7973 112.643 22.7853 113.302 23.976V20.176H116.798V41H113.302V37.124C112.618 38.34 111.592 39.3533 110.224 40.164C108.881 40.9493 107.311 41.342 105.512 41.342C103.663 41.342 101.991 40.886 100.496 39.974C99.0015 39.062 97.8235 37.7827 96.9621 36.136C96.1008 34.4893 95.6701 32.6147 95.6701 30.512ZM113.302 30.55C113.302 28.9793 112.985 27.6113 112.352 26.446C111.719 25.2807 110.857 24.394 109.768 23.786C108.704 23.1527 107.526 22.836 106.234 22.836C104.942 22.836 103.764 23.14 102.7 23.748C101.636 24.356 100.787 25.2427 100.154 26.408C99.5208 27.5733 99.2041 28.9413 99.2041 30.512C99.2041 32.108 99.5208 33.5013 100.154 34.692C100.787 35.8573 101.636 36.7567 102.7 37.39C103.764 37.998 104.942 38.302 106.234 38.302C107.526 38.302 108.704 37.998 109.768 37.39C110.857 36.7567 111.719 35.8573 112.352 34.692C112.985 33.5013 113.302 32.1207 113.302 30.55ZM124.428 16.794C123.769 16.794 123.212 16.566 122.756 16.11C122.3 15.654 122.072 15.0967 122.072 14.438C122.072 13.7793 122.3 13.222 122.756 12.766C123.212 12.31 123.769 12.082 124.428 12.082C125.061 12.082 125.593 12.31 126.024 12.766C126.48 13.222 126.708 13.7793 126.708 14.438C126.708 15.0967 126.48 15.654 126.024 16.11C125.593 16.566 125.061 16.794 124.428 16.794ZM126.1 20.176V41H122.642V20.176H126.1ZM135.451 12.88V41H131.993V12.88H135.451ZM159.281 20.176L146.741 50.804H143.169L147.273 40.772L138.875 20.176H142.713L149.249 37.048L155.709 20.176H159.281Z" fill="black"/>
<path d="M90.8201 51.19C90.0854 49.6447 89.0214 48.454 87.6281 47.618C86.2347 46.7567 84.6134 46.326 82.7641 46.326C80.9147 46.326 79.2427 46.7567 77.7481 47.618C76.2787 48.454 75.1134 49.67 74.2521 51.266C73.4161 52.8367 72.9981 54.6607 72.9981 56.738C72.9981 58.8153 73.4161 60.6393 74.2521 62.21C75.1134 63.7807 76.2787 64.9967 77.7481 65.858C79.2427 66.694 80.9147 67.112 82.7641 67.112C85.3481 67.112 87.4761 66.3393 89.1481 64.794C90.8201 63.2487 91.7954 61.1587 92.0741 58.524H81.5101V55.712H95.7601V58.372C95.5574 60.5507 94.8734 62.552 93.7081 64.376C92.5427 66.1747 91.0101 67.606 89.1101 68.67C87.2101 69.7087 85.0947 70.228 82.7641 70.228C80.3067 70.228 78.0647 69.658 76.0381 68.518C74.0114 67.3527 72.4027 65.744 71.2121 63.692C70.0467 61.64 69.4641 59.322 69.4641 56.738C69.4641 54.154 70.0467 51.836 71.2121 49.784C72.4027 47.7067 74.0114 46.098 76.0381 44.958C78.0647 43.7927 80.3067 43.21 82.7641 43.21C85.5761 43.21 88.0587 43.9067 90.2121 45.3C92.3907 46.6933 93.9741 48.6567 94.9621 51.19H90.8201ZM103.79 41.88V70H100.332V41.88H103.79ZM127.62 49.176L115.08 79.804H111.508L115.612 69.772L107.214 49.176H111.052L117.588 66.048L124.048 49.176H127.62Z" fill="#BB5B42"/>
</svg>
