<svg width="14" height="14" viewBox="0 0 14 14" fill="none" xmlns="http://www.w3.org/2000/svg">
<path d="M5.83314 13.4167C5.83314 13.5714 5.77169 13.7197 5.66229 13.8291C5.5529 13.9385 5.40453 14 5.24983 14H1.16663C0.857219 14 0.560483 13.8771 0.341698 13.6583C0.122912 13.4395 0 13.1428 0 12.8333V1.16667C0 0.857247 0.122912 0.560501 0.341698 0.341709C0.560483 0.122916 0.857219 0 1.16663 0H5.24983C5.40453 0 5.5529 0.0614583 5.66229 0.170854C5.77169 0.280251 5.83314 0.428624 5.83314 0.583333C5.83314 0.738043 5.77169 0.886416 5.66229 0.995812C5.5529 1.10521 5.40453 1.16667 5.24983 1.16667H1.16663V12.8333H5.24983C5.40453 12.8333 5.5529 12.8948 5.66229 13.0042C5.77169 13.1136 5.83314 13.262 5.83314 13.4167ZM13.8289 6.58729L10.9124 3.67062C10.8029 3.56117 10.6544 3.49968 10.4997 3.49968C10.3449 3.49968 10.1964 3.56117 10.087 3.67062C9.97751 3.78008 9.91602 3.92854 9.91602 4.08333C9.91602 4.23813 9.97751 4.38658 10.087 4.49604L12.0083 6.41667H5.24983C5.09512 6.41667 4.94676 6.47812 4.83736 6.58752C4.72797 6.69692 4.66651 6.84529 4.66651 7C4.66651 7.15471 4.72797 7.30308 4.83736 7.41248C4.94676 7.52188 5.09512 7.58333 5.24983 7.58333H12.0083L10.087 9.50396C9.97751 9.61341 9.91602 9.76187 9.91602 9.91667C9.91602 10.0715 9.97751 10.2199 10.087 10.3294C10.1964 10.4388 10.3449 10.5003 10.4997 10.5003C10.6544 10.5003 10.8029 10.4388 10.9124 10.3294L13.8289 7.41271C13.8832 7.35853 13.9262 7.2942 13.9555 7.22338C13.9849 7.15257 14 7.07666 14 7C14 6.92334 13.9849 6.84743 13.9555 6.77662C13.9262 6.7058 13.8832 6.64147 13.8289 6.58729Z" fill="#461D11"/>
</svg>
