<svg width="21" height="20" viewBox="0 0 21 20" fill="none" xmlns="http://www.w3.org/2000/svg">
<path d="M19.3846 0H1.61538C1.18696 0 0.776079 0.191558 0.473135 0.532533C0.170192 0.873508 0 1.33597 0 1.81818V18.1818C0 18.664 0.170192 19.1265 0.473135 19.4675C0.776079 19.8084 1.18696 20 1.61538 20H19.3846C19.813 20 20.2239 19.8084 20.5269 19.4675C20.8298 19.1265 21 18.664 21 18.1818V1.81818C21 1.33597 20.8298 0.873508 20.5269 0.532533C20.2239 0.191558 19.813 0 19.3846 0ZM17.7692 15.4545C17.9834 15.4545 18.1889 15.5503 18.3404 15.7208C18.4918 15.8913 18.5769 16.1225 18.5769 16.3636C18.5769 16.6047 18.4918 16.836 18.3404 17.0065C18.1889 17.1769 17.9834 17.2727 17.7692 17.2727H3.23077C3.01656 17.2727 2.81112 17.1769 2.65965 17.0065C2.50817 16.836 2.42308 16.6047 2.42308 16.3636V3.63636C2.42308 3.39526 2.50817 3.16403 2.65965 2.99354C2.81112 2.82305 3.01656 2.72727 3.23077 2.72727C3.44498 2.72727 3.65042 2.82305 3.80189 2.99354C3.95337 3.16403 4.03846 3.39526 4.03846 3.63636V10.7864L7.56 7.48295C7.69382 7.35744 7.8601 7.28398 8.03405 7.27354C8.20799 7.26309 8.38027 7.31622 8.52519 7.425L12.8665 10.6852L17.2493 6.57386C17.414 6.41956 17.6264 6.3452 17.8397 6.36715C18.0531 6.3891 18.25 6.50556 18.3871 6.69091C18.5242 6.87626 18.5903 7.11532 18.5708 7.35549C18.5513 7.59566 18.4478 7.81728 18.2831 7.97159L13.437 12.517C13.3032 12.6426 13.1369 12.716 12.9629 12.7265C12.789 12.7369 12.6167 12.6838 12.4718 12.575L8.13043 9.31477L4.03846 13.1534V15.4545H17.7692Z" fill="white"/>
</svg>
