<svg width="15" height="19" viewBox="0 0 15 19" fill="none" xmlns="http://www.w3.org/2000/svg">
<path d="M0.914329 18.7268C0.633759 18.544 0.401223 18.2801 0.240565 17.9622C0.0799081 17.6442 -0.00308888 17.2837 8.69036e-05 16.9175L8.69036e-05 2.08166C-0.00308888 1.71547 0.0799081 1.35492 0.240565 1.03697C0.401223 0.719028 0.633759 0.455132 0.914329 0.272349C1.18424 0.093993 1.49122 0 1.80382 0C2.11642 0 2.4234 0.093993 2.69331 0.272349L14.0835 7.68857C14.3625 7.87393 14.5939 8.13856 14.7547 8.45623C14.9154 8.77389 15 9.13355 15 9.49957C15 9.8656 14.9154 10.2253 14.7547 10.5429C14.5939 10.8606 14.3625 11.1252 14.0835 11.3106L2.69331 18.7285C2.42327 18.9066 2.11622 19.0003 1.80362 19C1.49102 18.9997 1.18411 18.9054 0.914329 18.7268Z" fill="#BB5B42"/>
</svg>
