<svg width="17" height="17" viewBox="0 0 17 17" fill="none" xmlns="http://www.w3.org/2000/svg">
<path d="M16.5847 4.25001L12.75 0.415267C12.6189 0.283145 12.4629 0.178395 12.291 0.107106C12.1191 0.0358176 11.9347 -0.00058742 11.7486 7.1674e-06H1.41667C1.04094 7.1674e-06 0.680608 0.149263 0.414932 0.414939C0.149255 0.680615 0 1.04095 0 1.41667V15.5833C0 15.9591 0.149255 16.3194 0.414932 16.5851C0.680608 16.8507 1.04094 17 1.41667 17H15.5833C15.9591 17 16.3194 16.8507 16.5851 16.5851C16.8507 16.3194 17 15.9591 17 15.5833V5.25141C17.0006 5.0653 16.9642 4.88093 16.8929 4.70902C16.8216 4.53711 16.7169 4.38108 16.5847 4.25001ZM15.5833 15.5833H13.4583V10.625C13.4583 10.2493 13.3091 9.88895 13.0434 9.62327C12.7777 9.35759 12.4174 9.20834 12.0417 9.20834H4.95833C4.58261 9.20834 4.22227 9.35759 3.9566 9.62327C3.69092 9.88895 3.54167 10.2493 3.54167 10.625V15.5833H1.41667V1.41667H11.7486L15.5833 5.25141V15.5833ZM11.3333 3.54167C11.3333 3.72953 11.2587 3.9097 11.1259 4.04254C10.993 4.17538 10.8129 4.25001 10.625 4.25001H5.66666C5.4788 4.25001 5.29864 4.17538 5.1658 4.04254C5.03296 3.9097 4.95833 3.72953 4.95833 3.54167C4.95833 3.35381 5.03296 3.17364 5.1658 3.04081C5.29864 2.90797 5.4788 2.83334 5.66666 2.83334H10.625C10.8129 2.83334 10.993 2.90797 11.1259 3.04081C11.2587 3.17364 11.3333 3.35381 11.3333 3.54167Z" fill="white"/>
</svg>
