<svg width="18" height="18" viewBox="0 0 18 18" fill="none" xmlns="http://www.w3.org/2000/svg">
<path d="M17.7036 16.2895L13.7507 12.3352C14.9359 10.7908 15.4893 8.85338 15.2985 6.91602C15.1077 4.97867 14.1871 3.18641 12.7235 1.90282C11.2598 0.619234 9.36266 -0.0595708 7.41689 0.00410682C5.47112 0.0677844 3.62243 0.869177 2.24582 2.24572C0.869217 3.62226 0.0677876 5.47087 0.00410701 7.41655C-0.0595736 9.36223 0.619263 11.2593 1.90291 12.7229C3.18656 14.1865 4.9789 15.107 6.91634 15.2978C8.85379 15.4886 10.7913 14.9352 12.3357 13.7501L16.2919 17.707C16.3848 17.7999 16.4951 17.8736 16.6165 17.9238C16.7379 17.9741 16.868 18 16.9994 18C17.1308 18 17.2609 17.9741 17.3823 17.9238C17.5037 17.8736 17.614 17.7999 17.7069 17.707C17.7999 17.614 17.8736 17.5038 17.9238 17.3824C17.9741 17.261 18 17.1309 18 16.9995C18 16.8681 17.9741 16.738 17.9238 16.6166C17.8736 16.4952 17.7999 16.3849 17.7069 16.292L17.7036 16.2895ZM2.01446 7.67415C2.01446 6.55475 2.34641 5.46049 2.96835 4.52974C3.59028 3.59899 4.47426 2.87357 5.5085 2.44519C6.54274 2.01681 7.68079 1.90473 8.77873 2.12312C9.87667 2.3415 10.8852 2.88054 11.6768 3.67208C12.4683 4.46361 13.0074 5.47209 13.2258 6.56998C13.4442 7.66787 13.3321 8.80587 12.9037 9.84006C12.4753 10.8742 11.7499 11.7582 10.8191 12.3801C9.88827 13.002 8.79396 13.3339 7.67451 13.3339C6.17384 13.3324 4.73508 12.7356 3.67395 11.6745C2.61282 10.6134 2.016 9.17475 2.01446 7.67415Z" fill="white"/>
</svg>
