<svg width="18" height="17" viewBox="0 0 18 17" fill="none" xmlns="http://www.w3.org/2000/svg">
<path d="M17.6537 15.1045C17.8742 15.3127 17.998 15.5951 17.998 15.8896C17.998 16.1841 17.8742 16.4665 17.6537 16.6748C17.4333 16.883 17.1343 17 16.8225 17C16.5107 17 16.2117 16.883 15.9912 16.6748L9 10.0693L2.0068 16.6729C1.89764 16.776 1.76805 16.8578 1.62542 16.9136C1.4828 16.9694 1.32993 16.9982 1.17556 16.9982C1.02118 16.9982 0.868315 16.9694 0.72569 16.9136C0.583065 16.8578 0.453473 16.776 0.344312 16.6729C0.235152 16.5698 0.148561 16.4474 0.089484 16.3127C0.0304068 16.178 0 16.0336 0 15.8878C0 15.742 0.0304068 15.5976 0.089484 15.4629C0.148561 15.3281 0.235152 15.2057 0.344312 15.1026L8.16778 7.71294C8.2768 7.6096 8.40635 7.52761 8.54899 7.47166C8.69164 7.41571 8.84457 7.38692 8.99902 7.38692C9.15347 7.38692 9.30641 7.41571 9.44905 7.47166C9.59169 7.52761 9.72124 7.6096 9.83027 7.71294L17.6537 15.1045ZM2.0068 9.28509L9 2.67964L15.9932 9.28602C16.2137 9.49425 16.5127 9.61124 16.8244 9.61124C17.1362 9.61124 17.4352 9.49425 17.6557 9.28602C17.8761 9.07778 18 8.79535 18 8.50086C18 8.20637 17.8761 7.92394 17.6557 7.71571L9.83222 0.32602C9.7232 0.222683 9.59365 0.140691 9.451 0.0847448C9.30836 0.0287989 9.15543 0 9.00098 0C8.84653 0 8.69359 0.0287989 8.55095 0.0847448C8.40831 0.140691 8.27876 0.222683 8.16973 0.32602L0.346268 7.71571C0.125809 7.92394 0.00195591 8.20637 0.00195591 8.50086C0.00195591 8.79535 0.125809 9.07778 0.346268 9.28602C0.566727 9.49425 0.865734 9.61124 1.17751 9.61124C1.48929 9.61124 1.7883 9.49425 2.00875 9.28602L2.0068 9.28509Z" fill="white"/>
</svg>
