<svg width="16" height="16" viewBox="0 0 16 16" fill="none" xmlns="http://www.w3.org/2000/svg">
<path d="M14.6667 0H1.33333C0.979711 0 0.640573 0.140476 0.390524 0.390524C0.140476 0.640573 0 0.979711 0 1.33333V14.6667C0 15.0203 0.140476 15.3594 0.390524 15.6095C0.640573 15.8595 0.979711 16 1.33333 16H14.6667C15.0203 16 15.3594 15.8595 15.6095 15.6095C15.8595 15.3594 16 15.0203 16 14.6667V1.33333C16 0.979711 15.8595 0.640573 15.6095 0.390524C15.3594 0.140476 15.0203 0 14.6667 0ZM11.1383 9.13833L8.47167 11.805C8.40975 11.867 8.33623 11.9162 8.25529 11.9497C8.17436 11.9833 8.08761 12.0005 8 12.0005C7.91239 12.0005 7.82564 11.9833 7.74471 11.9497C7.66377 11.9162 7.59025 11.867 7.52833 11.805L4.86167 9.13833C4.73657 9.01324 4.6663 8.84358 4.6663 8.66667C4.6663 8.48976 4.73657 8.32009 4.86167 8.195C4.98676 8.06991 5.15642 7.99963 5.33333 7.99963C5.51024 7.99963 5.67991 8.06991 5.805 8.195L7.33333 9.72417V4.66667C7.33333 4.48986 7.40357 4.32029 7.5286 4.19526C7.65362 4.07024 7.82319 4 8 4C8.17681 4 8.34638 4.07024 8.47141 4.19526C8.59643 4.32029 8.66667 4.48986 8.66667 4.66667V9.72417L10.195 8.195C10.3201 8.06991 10.4898 7.99963 10.6667 7.99963C10.8436 7.99963 11.0132 8.06991 11.1383 8.195C11.2634 8.32009 11.3337 8.48976 11.3337 8.66667C11.3337 8.84358 11.2634 9.01324 11.1383 9.13833Z" fill="#461D11"/>
</svg>
