<svg width="74" height="74" viewBox="0 0 74 74" fill="none" xmlns="http://www.w3.org/2000/svg">
<path fill-rule="evenodd" clip-rule="evenodd" d="M37 74C57.4351 74 74 57.4351 74 37C74 16.5649 57.4351 0 37 0C16.5649 0 0 16.5649 0 37C0 57.4351 16.5649 74 37 74ZM48.1 29.6C48.1 32.5439 46.9305 35.3672 44.8489 37.4489C42.7672 39.5305 39.9439 40.7 37 40.7C34.0561 40.7 31.2328 39.5305 29.1511 37.4489C27.0695 35.3672 25.9 32.5439 25.9 29.6C25.9 26.6561 27.0695 23.8328 29.1511 21.7511C31.2328 19.6695 34.0561 18.5 37 18.5C39.9439 18.5 42.7672 19.6695 44.8489 21.7511C46.9305 23.8328 48.1 26.6561 48.1 29.6ZM14.8 55.5C17.3826 52.0512 20.7339 49.2522 24.5877 47.3253C28.4414 45.3985 32.6914 44.3968 37 44.4C41.3086 44.3968 45.5586 45.3985 49.4123 47.3253C53.2661 49.2522 56.6174 52.0512 59.2 55.5C56.6174 58.9488 53.2661 61.7478 49.4123 63.6747C45.5586 65.6015 41.3086 66.6032 37 66.6C32.6914 66.6032 28.4414 65.6015 24.5877 63.6747C20.7339 61.7478 17.3826 58.9488 14.8 55.5Z" fill="#8D422E"/>
</svg>
